<mxfile host="app.diagrams.net" agent="Mozilla/5.0 (Windows NT 10.0; Win64; x64) AppleWebKit/537.36 (KHTML, like Gecko) Chrome/128.0.0.0 YaBrowser/24.10.0.0 Safari/537.36" version="25.0.3">
  <diagram name="Страница — 1" id="HA7gu8ezeM9_Vz-Kj3a0">
    <mxGraphModel dx="1434" dy="829" grid="1" gridSize="10" guides="1" tooltips="1" connect="1" arrows="1" fold="1" page="1" pageScale="1" pageWidth="827" pageHeight="1169" math="0" shadow="0">
      <root>
        <mxCell id="0" />
        <mxCell id="1" parent="0" />
        <mxCell id="6RResULeIwUrUMpcnrF6-1" value="pymongo-api" style="rounded=1;whiteSpace=wrap;html=1;" vertex="1" parent="1">
          <mxGeometry x="290" y="30" width="120" height="60" as="geometry" />
        </mxCell>
        <mxCell id="6RResULeIwUrUMpcnrF6-2" style="edgeStyle=orthogonalEdgeStyle;rounded=0;orthogonalLoop=1;jettySize=auto;html=1;exitX=0.5;exitY=1;exitDx=0;exitDy=0;entryX=0.5;entryY=0;entryDx=0;entryDy=0;" edge="1" parent="1" source="6RResULeIwUrUMpcnrF6-1" target="6RResULeIwUrUMpcnrF6-4">
          <mxGeometry relative="1" as="geometry">
            <mxPoint x="320" y="450" as="targetPoint" />
          </mxGeometry>
        </mxCell>
        <mxCell id="6RResULeIwUrUMpcnrF6-3" style="edgeStyle=orthogonalEdgeStyle;rounded=0;orthogonalLoop=1;jettySize=auto;html=1;entryX=1;entryY=0.5;entryDx=0;entryDy=0;entryPerimeter=0;" edge="1" parent="1" source="6RResULeIwUrUMpcnrF6-4" target="6RResULeIwUrUMpcnrF6-10">
          <mxGeometry relative="1" as="geometry">
            <mxPoint x="350" y="350" as="targetPoint" />
          </mxGeometry>
        </mxCell>
        <mxCell id="6RResULeIwUrUMpcnrF6-4" value="mongos-router" style="rounded=1;whiteSpace=wrap;html=1;" vertex="1" parent="1">
          <mxGeometry x="290" y="170" width="120" height="60" as="geometry" />
        </mxCell>
        <mxCell id="6RResULeIwUrUMpcnrF6-5" style="edgeStyle=orthogonalEdgeStyle;rounded=0;orthogonalLoop=1;jettySize=auto;html=1;entryX=0;entryY=0.5;entryDx=0;entryDy=0;startArrow=classic;startFill=1;" edge="1" parent="1" source="6RResULeIwUrUMpcnrF6-6" target="6RResULeIwUrUMpcnrF6-4">
          <mxGeometry relative="1" as="geometry" />
        </mxCell>
        <mxCell id="6RResULeIwUrUMpcnrF6-6" value="configSrv" style="rounded=1;whiteSpace=wrap;html=1;" vertex="1" parent="1">
          <mxGeometry x="80" y="170" width="120" height="60" as="geometry" />
        </mxCell>
        <mxCell id="6RResULeIwUrUMpcnrF6-7" value="MongoDB" style="shape=cylinder3;whiteSpace=wrap;html=1;boundedLbl=1;backgroundOutline=1;size=15;" vertex="1" parent="1">
          <mxGeometry x="410" y="300" width="80" height="80" as="geometry" />
        </mxCell>
        <mxCell id="6RResULeIwUrUMpcnrF6-8" value="&lt;div style=&quot;text-align: center;&quot;&gt;shard2&lt;/div&gt;" style="text;whiteSpace=wrap;html=1;" vertex="1" parent="1">
          <mxGeometry x="450" y="270" width="50" height="30" as="geometry" />
        </mxCell>
        <mxCell id="6RResULeIwUrUMpcnrF6-9" style="edgeStyle=orthogonalEdgeStyle;rounded=0;orthogonalLoop=1;jettySize=auto;html=1;entryX=0.75;entryY=1;entryDx=0;entryDy=0;" edge="1" parent="1" source="6RResULeIwUrUMpcnrF6-10" target="6RResULeIwUrUMpcnrF6-6">
          <mxGeometry relative="1" as="geometry" />
        </mxCell>
        <mxCell id="6RResULeIwUrUMpcnrF6-10" value="MongoDB&lt;br&gt;primary" style="shape=cylinder3;whiteSpace=wrap;html=1;boundedLbl=1;backgroundOutline=1;size=15;" vertex="1" parent="1">
          <mxGeometry x="230" y="300" width="80" height="80" as="geometry" />
        </mxCell>
        <mxCell id="6RResULeIwUrUMpcnrF6-11" value="&lt;div style=&quot;text-align: center;&quot;&gt;shard1&lt;/div&gt;" style="text;whiteSpace=wrap;html=1;" vertex="1" parent="1">
          <mxGeometry x="250" y="260" width="40" height="30" as="geometry" />
        </mxCell>
        <mxCell id="6RResULeIwUrUMpcnrF6-12" value="MongoDB&lt;div&gt;Sec&lt;/div&gt;" style="shape=cylinder3;whiteSpace=wrap;html=1;boundedLbl=1;backgroundOutline=1;size=15;" vertex="1" parent="1">
          <mxGeometry x="230" y="400" width="80" height="80" as="geometry" />
        </mxCell>
        <mxCell id="6RResULeIwUrUMpcnrF6-13" value="MongoDB&lt;div&gt;Sec&lt;/div&gt;" style="shape=cylinder3;whiteSpace=wrap;html=1;boundedLbl=1;backgroundOutline=1;size=15;" vertex="1" parent="1">
          <mxGeometry x="230" y="500" width="80" height="80" as="geometry" />
        </mxCell>
        <mxCell id="6RResULeIwUrUMpcnrF6-14" value="MongoDB" style="shape=cylinder3;whiteSpace=wrap;html=1;boundedLbl=1;backgroundOutline=1;size=15;" vertex="1" parent="1">
          <mxGeometry x="410" y="400" width="80" height="80" as="geometry" />
        </mxCell>
        <mxCell id="6RResULeIwUrUMpcnrF6-15" value="MongoDB" style="shape=cylinder3;whiteSpace=wrap;html=1;boundedLbl=1;backgroundOutline=1;size=15;" vertex="1" parent="1">
          <mxGeometry x="410" y="500" width="80" height="80" as="geometry" />
        </mxCell>
        <mxCell id="6RResULeIwUrUMpcnrF6-16" value="" style="rounded=0;whiteSpace=wrap;html=1;fillColor=none;dashed=1;" vertex="1" parent="1">
          <mxGeometry x="215" y="260" width="110" height="360" as="geometry" />
        </mxCell>
        <mxCell id="6RResULeIwUrUMpcnrF6-17" value="" style="rounded=0;whiteSpace=wrap;html=1;fillColor=none;dashed=1;" vertex="1" parent="1">
          <mxGeometry x="395" y="260" width="110" height="360" as="geometry" />
        </mxCell>
        <mxCell id="6RResULeIwUrUMpcnrF6-18" value="&lt;div style=&quot;text-align: center;&quot;&gt;shard1_db1&lt;/div&gt;" style="text;whiteSpace=wrap;html=1;" vertex="1" parent="1">
          <mxGeometry x="240" y="300" width="40" height="30" as="geometry" />
        </mxCell>
        <mxCell id="6RResULeIwUrUMpcnrF6-19" value="&lt;div style=&quot;text-align: center;&quot;&gt;shard1_db2&lt;/div&gt;" style="text;whiteSpace=wrap;html=1;" vertex="1" parent="1">
          <mxGeometry x="240" y="400" width="40" height="30" as="geometry" />
        </mxCell>
        <mxCell id="6RResULeIwUrUMpcnrF6-20" value="&lt;div style=&quot;text-align: center;&quot;&gt;shard1_db3&lt;/div&gt;" style="text;whiteSpace=wrap;html=1;" vertex="1" parent="1">
          <mxGeometry x="240" y="500" width="40" height="30" as="geometry" />
        </mxCell>
        <mxCell id="6RResULeIwUrUMpcnrF6-21" value="&lt;div style=&quot;text-align: center;&quot;&gt;shard2_db1&lt;/div&gt;" style="text;whiteSpace=wrap;html=1;" vertex="1" parent="1">
          <mxGeometry x="420" y="300" width="40" height="30" as="geometry" />
        </mxCell>
        <mxCell id="6RResULeIwUrUMpcnrF6-22" value="&lt;div style=&quot;text-align: center;&quot;&gt;shard2_db2&lt;/div&gt;" style="text;whiteSpace=wrap;html=1;" vertex="1" parent="1">
          <mxGeometry x="420" y="400" width="40" height="30" as="geometry" />
        </mxCell>
        <mxCell id="6RResULeIwUrUMpcnrF6-23" value="&lt;div style=&quot;text-align: center;&quot;&gt;shard2_db3&lt;/div&gt;" style="text;whiteSpace=wrap;html=1;" vertex="1" parent="1">
          <mxGeometry x="420" y="500" width="40" height="30" as="geometry" />
        </mxCell>
        <mxCell id="6RResULeIwUrUMpcnrF6-24" style="edgeStyle=orthogonalEdgeStyle;rounded=0;orthogonalLoop=1;jettySize=auto;html=1;entryX=0;entryY=0.5;entryDx=0;entryDy=0;entryPerimeter=0;" edge="1" parent="1" source="6RResULeIwUrUMpcnrF6-4" target="6RResULeIwUrUMpcnrF6-7">
          <mxGeometry relative="1" as="geometry" />
        </mxCell>
        <mxCell id="6RResULeIwUrUMpcnrF6-25" style="edgeStyle=orthogonalEdgeStyle;rounded=0;orthogonalLoop=1;jettySize=auto;html=1;entryX=0.908;entryY=0.967;entryDx=0;entryDy=0;entryPerimeter=0;" edge="1" parent="1" source="6RResULeIwUrUMpcnrF6-7" target="6RResULeIwUrUMpcnrF6-6">
          <mxGeometry relative="1" as="geometry">
            <Array as="points">
              <mxPoint x="450" y="250" />
              <mxPoint x="189" y="250" />
            </Array>
          </mxGeometry>
        </mxCell>
        <mxCell id="6RResULeIwUrUMpcnrF6-26" value="redis" style="shape=cylinder3;whiteSpace=wrap;html=1;boundedLbl=1;backgroundOutline=1;size=15;" vertex="1" parent="1">
          <mxGeometry x="510" y="100" width="80" height="80" as="geometry" />
        </mxCell>
        <mxCell id="6RResULeIwUrUMpcnrF6-27" style="edgeStyle=orthogonalEdgeStyle;rounded=0;orthogonalLoop=1;jettySize=auto;html=1;entryX=0.5;entryY=0;entryDx=0;entryDy=0;entryPerimeter=0;startArrow=classic;startFill=1;" edge="1" parent="1" source="6RResULeIwUrUMpcnrF6-1" target="6RResULeIwUrUMpcnrF6-26">
          <mxGeometry relative="1" as="geometry" />
        </mxCell>
        <mxCell id="6RResULeIwUrUMpcnrF6-28" value="&lt;h1 style=&quot;margin-top: 0px;&quot;&gt;&lt;p class=&quot;p1&quot; style=&quot;text-indent: 0px; margin: 0px 0px 0px 21px; font-variant-numeric: normal; font-variant-east-asian: normal; font-variant-alternates: normal; font-kerning: auto; font-optical-sizing: auto; font-feature-settings: normal; font-variation-settings: normal; font-variant-position: normal; font-stretch: normal; line-height: normal;&quot;&gt;&lt;span style=&quot;font-size: 18px;&quot;&gt;pymongo-api&lt;/span&gt;&lt;span style=&quot;font-size: 18px; font-weight: normal;&quot;&gt; - это серверная API, реализующая методы для операций создания, чтения, обновления и удаления (CRUD).&lt;/span&gt;&lt;br&gt;&lt;/p&gt;&lt;p class=&quot;p1&quot; style=&quot;margin: 0px 0px 0px 21px; text-indent: -21px; font-variant-numeric: normal; font-variant-east-asian: normal; font-variant-alternates: normal; font-kerning: auto; font-optical-sizing: auto; font-feature-settings: normal; font-variation-settings: normal; font-variant-position: normal; font-stretch: normal; line-height: normal;&quot;&gt;&lt;span style=&quot;background-color: initial; text-indent: 0px;&quot;&gt;&lt;font style=&quot;font-size: 18px;&quot;&gt;mongos-router&lt;/font&gt;&lt;span style=&quot;font-size: 23px;&quot;&gt;&amp;nbsp;&lt;span style=&quot;font-weight: normal;&quot;&gt;-&amp;nbsp;&lt;/span&gt;&lt;/span&gt;&lt;/span&gt;&lt;span style=&quot;font-size: 18px; background-color: rgb(255, 255, 255); color: rgba(0, 0, 0, 0.85); font-family: &amp;quot;YS Text&amp;quot;, sans-serif; font-weight: 400; white-space-collapse: preserve-breaks;&quot;&gt;роутер определяет, на какой shard[1..n] отправить запрос.&lt;/span&gt;&lt;/p&gt;&lt;p class=&quot;p1&quot; style=&quot;margin: 0px 0px 0px 21px; text-indent: -21px; font-variant-numeric: normal; font-variant-east-asian: normal; font-variant-alternates: normal; font-kerning: auto; font-optical-sizing: auto; font-feature-settings: normal; font-variation-settings: normal; font-variant-position: normal; font-stretch: normal; line-height: normal;&quot;&gt;&lt;span style=&quot;background-color: initial; font-size: 18px;&quot;&gt;configSrv&lt;/span&gt;&lt;span style=&quot;background-color: initial; font-size: 18px; font-weight: normal;&quot;&gt; - это конфигурационный сервер, который хранит метаданные кластера. Эти метаданные содержат информацию о распределении данных кластера по шардам.&lt;/span&gt;&lt;/p&gt;&lt;div style=&quot;&quot;&gt;&lt;span style=&quot;background-color: initial; font-size: 18px;&quot;&gt;shard1&lt;/span&gt;&lt;span style=&quot;background-color: initial; font-size: 18px; font-weight: normal;&quot;&gt;, &lt;/span&gt;&lt;span style=&quot;background-color: initial; font-size: 18px;&quot;&gt;shard2&lt;/span&gt;&lt;span style=&quot;background-color: initial; font-size: 18px; font-weight: normal;&quot;&gt;... &lt;/span&gt;&lt;span style=&quot;background-color: initial; font-size: 18px;&quot;&gt;shardN&lt;/span&gt;&lt;span style=&quot;background-color: initial; font-size: 18px; font-weight: normal;&quot;&gt;, используются для хранения данных, и каждый из них представляет собой отдельные реплицируемые БД&lt;/span&gt;&lt;/div&gt;&lt;div style=&quot;&quot;&gt;&lt;span style=&quot;font-size: 18px;&quot;&gt;redis &lt;/span&gt;&lt;span style=&quot;font-size: 18px; font-weight: 400;&quot;&gt;- временное хранение в памяти данных&amp;nbsp;&lt;/span&gt;&lt;/div&gt;&lt;/h1&gt;" style="text;html=1;whiteSpace=wrap;overflow=hidden;rounded=0;fontSize=15;align=left;" vertex="1" parent="1">
          <mxGeometry x="590" y="205" width="450" height="495" as="geometry" />
        </mxCell>
      </root>
    </mxGraphModel>
  </diagram>
</mxfile>
